<svg width="114" height="30" viewBox="0 0 114 30" fill="none" xmlns="http://www.w3.org/2000/svg">
<path d="M46.8672 15.1562L45.0391 17.125V22H41.5234V4.9375H45.0391V12.6719L46.5859 10.5508L50.9336 4.9375H55.2578L49.1992 12.5195L55.4336 22H51.25L46.8672 15.1562ZM63.6602 12.4961C63.1992 12.4336 62.793 12.4023 62.4414 12.4023C61.1602 12.4023 60.3203 12.8359 59.9219 13.7031V22H56.5352V9.32031H59.7344L59.8281 10.832C60.5078 9.66797 61.4492 9.08594 62.6523 9.08594C63.0273 9.08594 63.3789 9.13672 63.707 9.23828L63.6602 12.4961ZM70.2461 17.207L72.5898 9.32031H76.2227L71.125 23.9688L70.8438 24.6367C70.0859 26.293 68.8359 27.1211 67.0938 27.1211C66.6016 27.1211 66.1016 27.0469 65.5938 26.8984V24.332L66.1094 24.3438C66.75 24.3438 67.2266 24.2461 67.5391 24.0508C67.8594 23.8555 68.1094 23.5312 68.2891 23.0781L68.6875 22.0352L64.2461 9.32031H67.8906L70.2461 17.207ZM88.9727 15.7773C88.9727 17.7305 88.5273 19.2969 87.6367 20.4766C86.7539 21.6484 85.5586 22.2344 84.0508 22.2344C82.7695 22.2344 81.7344 21.7891 80.9453 20.8984V26.875H77.5586V9.32031H80.6992L80.8164 10.5625C81.6367 9.57812 82.707 9.08594 84.0273 9.08594C85.5898 9.08594 86.8047 9.66406 87.6719 10.8203C88.5391 11.9766 88.9727 13.5703 88.9727 15.6016V15.7773ZM85.5859 15.5312C85.5859 14.3516 85.375 13.4414 84.9531 12.8008C84.5391 12.1602 83.9336 11.8398 83.1367 11.8398C82.0742 11.8398 81.3438 12.2461 80.9453 13.0586V18.25C81.3594 19.0859 82.0977 19.5039 83.1602 19.5039C84.7773 19.5039 85.5859 18.1797 85.5859 15.5312ZM95.1367 6.20312V9.32031H97.3047V11.8047H95.1367V18.1328C95.1367 18.6016 95.2266 18.9375 95.4062 19.1406C95.5859 19.3438 95.9297 19.4453 96.4375 19.4453C96.8125 19.4453 97.1445 19.418 97.4336 19.3633V21.9297C96.7695 22.1328 96.0859 22.2344 95.3828 22.2344C93.0078 22.2344 91.7969 21.0352 91.75 18.6367V11.8047H89.8984V9.32031H91.75V6.20312H95.1367ZM98.3125 15.543C98.3125 14.2852 98.5547 13.1641 99.0391 12.1797C99.5234 11.1953 100.219 10.4336 101.125 9.89453C102.039 9.35547 103.098 9.08594 104.301 9.08594C106.012 9.08594 107.406 9.60938 108.484 10.6562C109.57 11.7031 110.176 13.125 110.301 14.9219L110.324 15.7891C110.324 17.7344 109.781 19.2969 108.695 20.4766C107.609 21.6484 106.152 22.2344 104.324 22.2344C102.496 22.2344 101.035 21.6484 99.9414 20.4766C98.8555 19.3047 98.3125 17.7109 98.3125 15.6953V15.543ZM101.699 15.7891C101.699 16.9922 101.926 17.9141 102.379 18.5547C102.832 19.1875 103.48 19.5039 104.324 19.5039C105.145 19.5039 105.785 19.1914 106.246 18.5664C106.707 17.9336 106.938 16.9258 106.938 15.543C106.938 14.3633 106.707 13.4492 106.246 12.8008C105.785 12.1523 105.137 11.8281 104.301 11.8281C103.473 11.8281 102.832 12.1523 102.379 12.8008C101.926 13.4414 101.699 14.4375 101.699 15.7891Z" fill="white"/>
<path fill-rule="evenodd" clip-rule="evenodd" d="M14.4882 18.6452C14.4882 18.6452 14.5213 18.5757 14.5213 18.4239L11.2812 18.4238C11.2813 17.2134 12.0729 16.2853 12.6979 15.7548C13.4044 15.1553 14.3347 14.6781 15.3413 14.4554C16.3552 14.231 17.5318 14.2481 18.662 14.7631C19.8165 15.2893 20.7788 16.2705 21.4295 17.7042C22.3502 19.7326 23.4839 20.0968 24.0337 20.0548C24.5502 20.0154 25.2657 19.571 25.4191 18.2253L28.6366 18.6224C28.3365 21.2544 26.6219 23.237 24.271 23.4167C21.9533 23.5938 19.7822 21.9692 18.4997 19.1435C18.1442 18.3604 17.7205 18.0142 17.362 17.8508C16.9791 17.6763 16.5156 17.6418 16.0153 17.7525C15.5077 17.8649 15.0494 18.1094 14.7459 18.367C14.536 18.5451 14.4882 18.6452 14.4882 18.6452Z" fill="white"/>
<path fill-rule="evenodd" clip-rule="evenodd" d="M12.5851 10.1213L20.9764 3.03723L22.9961 5.62589L14.6049 12.71C14.5299 12.7733 14.4863 12.8684 14.4863 12.9688V28.2025H11.2812V12.9688C11.2812 11.8638 11.7603 10.8177 12.5851 10.1213Z" fill="white"/>
<path fill-rule="evenodd" clip-rule="evenodd" d="M25.5821 18.4547C26.3611 16.1734 26.4001 13.7044 25.6936 11.3997C24.9871 9.09497 23.5712 7.07216 21.6477 5.61966C19.7242 4.16717 17.3913 3.35914 14.9816 3.31079C12.572 3.26244 10.2086 3.97623 8.22836 5.35039C6.24815 6.72455 4.75224 8.68893 3.9539 10.9635C3.15555 13.238 3.09553 15.7066 3.7824 18.0172C4.46926 20.3279 5.86794 22.3627 7.77903 23.8315C9.69012 25.3003 12.016 26.1282 14.4252 26.197L14.3307 29.5041C13.2167 29.4723 12.1165 29.3146 11.0498 29.038C9.14298 28.5435 7.34332 27.6691 5.76357 26.4549C3.30011 24.5616 1.49715 21.9387 0.61176 18.9601C-0.273633 15.9816 -0.196268 12.7995 0.832826 9.86755C1.86192 6.93559 3.79021 4.40343 6.34276 2.63208C8.89532 0.86074 11.9418 -0.0593588 15.048 0.00296997C18.1541 0.0652987 21.1613 1.10687 23.6407 2.97919C26.1202 4.85151 27.9454 7.45899 28.8561 10.4299C29.4401 12.335 29.6289 14.3273 29.4244 16.2869C29.31 17.3831 29.0726 18.4691 28.7124 19.524L25.5821 18.4547Z" fill="white"/>
</svg>
