<svg width="18" height="18" viewBox="0 0 18 18" fill="none" xmlns="http://www.w3.org/2000/svg">
<path fill-rule="evenodd" clip-rule="evenodd" d="M9 16.8C13.3078 16.8 16.8 13.3078 16.8 9C16.8 4.69218 13.3078 1.2 9 1.2C4.69218 1.2 1.2 4.69218 1.2 9C1.2 13.3078 4.69218 16.8 9 16.8ZM9 18C13.9706 18 18 13.9706 18 9C18 4.02944 13.9706 0 9 0C4.02944 0 0 4.02944 0 9C0 13.9706 4.02944 18 9 18Z" fill="#ED694A"/>
<path fill-rule="evenodd" clip-rule="evenodd" d="M8.40039 3.5H9.60039V8.75147L12.7247 11.8757L11.8761 12.7243L8.40039 9.24853V3.5Z" fill="#D8553A"/>
</svg>
